# xmcd CD database file
#
# Track frame offsets:
#	150
#	27846
#	41334
#	65817
#	80330
#	102092
#	119057
#	134605
#	151018
#	162253
#	180700
#	190306
#	207234
#	226666
#	239412
#
# Disc length: 3489 seconds
#
# Revision: 0
# Processed by: cddbd v1.5.2PL0 Copyright (c) Steve Scherf et al.
# Submitted via: CDex 1.70beta2
#
DISCID=c60d9f0f
DTITLE=Northern Lights - Harp and Hammer Dulcimer Ensemble
DYEAR=1900
DGENRE=New Age
TTITLE0=Busker's Dream
TTITLE1=Sleepers Awake
TTITLE2=Pyramid-In The Wood-In The Bright Light/Star Of The Country Down
TTITLE3=Carolan's Draught
TTITLE4=The Mushrooms Of Fagernes
TTITLE5=Squire Woods Lamentation On The Refusal Of His Tuppence
TTITLE6=Carolan's Ramble To Cashel
TTITLE7=The Fair Haired Lass
TTITLE8=Carolan's Receipt
TTITLE9=Trout Will Rise/Promenade
TTITLE10=Sheep Under The Snow
TTITLE11=The Spiral Dance
TTITLE12=Conor Pass
TTITLE13=Princess Royal
TTITLE14=Eleanor Plunkett/Day Of Grace
EXTD=
EXTT0=
EXTT1=
EXTT2=
EXTT3=
EXTT4=
EXTT5=
EXTT6=
EXTT7=
EXTT8=
EXTT9=
EXTT10=
EXTT11=
EXTT12=
EXTT13=
EXTT14=
PLAYORDER=
